<svg width="30" height="30" viewBox="0 0 30 30" fill="none" xmlns="http://www.w3.org/2000/svg">
<g id="Content/add_circle_outline">
<path id="Icon" fill-rule="evenodd" clip-rule="evenodd" d="M15 10C14.45 10 14 10.45 14 11V14H11C10.45 14 10 14.45 10 15C10 15.55 10.45 16 11 16H14V19C14 19.55 14.45 20 15 20C15.55 20 16 19.55 16 19V16H19C19.55 16 20 15.55 20 15C20 14.45 19.55 14 19 14H16V11C16 10.45 15.55 10 15 10ZM15 5C9.48 5 5 9.48 5 15C5 20.52 9.48 25 15 25C20.52 25 25 20.52 25 15C25 9.48 20.52 5 15 5ZM15 23C10.59 23 7 19.41 7 15C7 10.59 10.59 7 15 7C19.41 7 23 10.59 23 15C23 19.41 19.41 23 15 23Z" fill="#DADEE6"/>
</g>
</svg>
