<svg width="30" height="30" viewBox="0 0 30 30" fill="none" xmlns="http://www.w3.org/2000/svg">
<g id="Icon">
<path id="Icon_2" fill-rule="evenodd" clip-rule="evenodd" d="M20.8925 8.30249C20.7057 8.11523 20.452 8.01 20.1875 8.01C19.923 8.01 19.6693 8.11523 19.4825 8.30249L14.5925 13.1825L9.7025 8.29249C9.51567 8.10523 9.26202 8 8.9975 8C8.73298 8 8.47933 8.10523 8.2925 8.29249C7.9025 8.68249 7.9025 9.31249 8.2925 9.70249L13.1825 14.5925L8.2925 19.4825C7.9025 19.8725 7.9025 20.5025 8.2925 20.8925C8.6825 21.2825 9.3125 21.2825 9.7025 20.8925L14.5925 16.0025L19.4825 20.8925C19.8725 21.2825 20.5025 21.2825 20.8925 20.8925C21.2825 20.5025 21.2825 19.8725 20.8925 19.4825L16.0025 14.5925L20.8925 9.70249C21.2725 9.32249 21.2725 8.68249 20.8925 8.30249Z" fill="#C3CAD9"/>
</g>
</svg>
