<svg width="30" height="30" viewBox="0 0 30 30" fill="none" xmlns="http://www.w3.org/2000/svg">
<g id="Action/compare_arrows">
<path id="Icon" fill-rule="evenodd" clip-rule="evenodd" d="M12.01 17.2915H6C5.45 17.2915 5 17.7415 5 18.2915C5 18.8415 5.45 19.2915 6 19.2915H12.01V21.0815C12.01 21.5315 12.55 21.7515 12.86 21.4315L15.64 18.6415C15.83 18.4415 15.83 18.1315 15.64 17.9315L12.86 15.1415C12.55 14.8215 12.01 15.0515 12.01 15.4915V17.2915ZM17.99 15.0815V13.2915H24C24.55 13.2915 25 12.8415 25 12.2915C25 11.7415 24.55 11.2915 24 11.2915H17.99V9.50153C17.99 9.05153 17.45 8.83153 17.14 9.15153L14.36 11.9415C14.17 12.1415 14.17 12.4515 14.36 12.6515L17.14 15.4415C17.45 15.7515 17.99 15.5315 17.99 15.0815Z" fill="#C3CAD9"/>
</g>
</svg>
