<svg width="30" height="30" viewBox="0 0 30 30" fill="none" xmlns="http://www.w3.org/2000/svg">
<g id="Navigation/ic_arrows2">
<path id="Icon" fill-rule="evenodd" clip-rule="evenodd" d="M17 11H17.4853L14.7782 13.7071L13.7071 14.7782L13.7065 14.7788L11 17.4853V17C11 16.45 10.55 16 10 16C9.45 16 9 16.45 9 17V20C9 20.55 9.45 21 10 21H13C13.55 21 14 20.55 14 20C14 19.45 13.55 19 13 19H12.3137L15.1213 16.1924L16.1924 15.1213L16.1927 15.1211L19 12.3137V13C19 13.55 19.45 14 20 14C20.55 14 21 13.55 21 13V10C21 9.45 20.55 9 20 9H17C16.45 9 16 9.45 16 10C16 10.55 16.45 11 17 11Z" fill="#C3CAD9"/>
</g>
</svg>
