<svg width="31" height="30" viewBox="0 0 31 30" fill="none" xmlns="http://www.w3.org/2000/svg">
<g id="Icon">
<path id="Icon_2" fill-rule="evenodd" clip-rule="evenodd" d="M19.1671 17.0006H18.3771L18.0971 16.7306C19.2971 15.3306 19.9171 13.4206 19.5771 11.3906C19.1071 8.61063 16.7871 6.39063 13.9871 6.05063C9.75713 5.53063 6.19713 9.09063 6.71713 13.3206C7.05713 16.1206 9.27713 18.4406 12.0571 18.9106C14.0871 19.2506 15.9971 18.6306 17.3971 17.4306L17.6671 17.7106V18.5006L21.9171 22.7506C22.3271 23.1606 22.9971 23.1606 23.4071 22.7506C23.8171 22.3406 23.8171 21.6706 23.4071 21.2606L19.1671 17.0006ZM13.1671 17.0006C10.6771 17.0006 8.66713 14.9906 8.66713 12.5006C8.66713 10.0106 10.6771 8.00063 13.1671 8.00063C15.6571 8.00063 17.6671 10.0106 17.6671 12.5006C17.6671 14.9906 15.6571 17.0006 13.1671 17.0006Z" fill="#C3CAD9"/>
</g>
</svg>
