<svg width="31" height="30" viewBox="0 0 31 30" fill="none" xmlns="http://www.w3.org/2000/svg">
<g id="Icon">
<path id="Icon_2" fill-rule="evenodd" clip-rule="evenodd" d="M9.3335 13C8.2335 13 7.3335 13.9 7.3335 15C7.3335 16.1 8.2335 17 9.3335 17C10.4335 17 11.3335 16.1 11.3335 15C11.3335 13.9 10.4335 13 9.3335 13ZM21.3335 13C20.2335 13 19.3335 13.9 19.3335 15C19.3335 16.1 20.2335 17 21.3335 17C22.4335 17 23.3335 16.1 23.3335 15C23.3335 13.9 22.4335 13 21.3335 13ZM15.3335 13C14.2335 13 13.3335 13.9 13.3335 15C13.3335 16.1 14.2335 17 15.3335 17C16.4335 17 17.3335 16.1 17.3335 15C17.3335 13.9 16.4335 13 15.3335 13Z" fill="#C3CAD9"/>
</g>
</svg>
